<?xml version="1.0" encoding="UTF-8" standalone="no"?>
<svg
   xmlns:dc="http://purl.org/dc/elements/1.1/"
   xmlns:cc="http://creativecommons.org/ns#"
   xmlns:rdf="http://www.w3.org/1999/02/22-rdf-syntax-ns#"
   xmlns:svg="http://www.w3.org/2000/svg"
   xmlns="http://www.w3.org/2000/svg"
   xmlns:xlink="http://www.w3.org/1999/xlink"
   xmlns:sodipodi="http://sodipodi.sourceforge.net/DTD/sodipodi-0.dtd"
   xmlns:inkscape="http://www.inkscape.org/namespaces/inkscape"
   width="1080"
   height="1920"
   viewBox="0 0 285.74999 508.00001"
   version="1.1"
   id="svg8"
   inkscape:version="1.0.2 (e86c870879, 2021-01-15, custom)"
   sodipodi:docname="background.svg">
  <defs
     id="defs2">
    <linearGradient
       inkscape:collect="always"
       id="linearGradient844">
      <stop
         style="stop-color:#3ab4d2;stop-opacity:1"
         offset="0"
         id="stop840" />
      <stop
         style="stop-color:#216778;stop-opacity:0.98039216"
         offset="1"
         id="stop842" />
    </linearGradient>
    <linearGradient
       inkscape:collect="always"
       xlink:href="#linearGradient844"
       id="linearGradient846"
       x1="146.4637"
       y1="2.7666407"
       x2="152.11523"
       y2="507.37152"
       gradientUnits="userSpaceOnUse" />
  </defs>
  <sodipodi:namedview
     id="base"
     pagecolor="#ffffff"
     bordercolor="#666666"
     borderopacity="1.0"
     inkscape:pageopacity="0.0"
     inkscape:pageshadow="2"
     inkscape:zoom="0.24748737"
     inkscape:cx="325.14294"
     inkscape:cy="961.19043"
     inkscape:document-units="mm"
     inkscape:current-layer="layer1"
     inkscape:document-rotation="0"
     showgrid="false"
     units="px"
     inkscape:window-width="1920"
     inkscape:window-height="1013"
     inkscape:window-x="1911"
     inkscape:window-y="-9"
     inkscape:window-maximized="1" />
  <metadata
     id="metadata5">
    <rdf:RDF>
      <cc:Work
         rdf:about="">
        <dc:format>image/svg+xml</dc:format>
        <dc:type
           rdf:resource="http://purl.org/dc/dcmitype/StillImage" />
        <dc:title />
      </cc:Work>
    </rdf:RDF>
  </metadata>
  <g
     inkscape:label="Warstwa 1"
     inkscape:groupmode="layer"
     id="layer1">
    <rect
       style="fill:url(#linearGradient846);fill-opacity:1;stroke-width:0.406"
       id="rect833"
       width="285.75"
       height="508"
       x="0"
       y="0"
       inkscape:export-xdpi="96"
       inkscape:export-ydpi="96" />
    <path
       id="path851"
       style="fill:#f9f9f9;fill-opacity:0.894737;stroke:none;stroke-width:0.406"
       d="m 54.758188,20.550437 a 26.269344,18.520834 0 0 0 -24.889436,12.66331 26.269344,18.520834 0 0 0 -22.5154222,18.33066 26.269344,18.520834 0 0 0 26.2697142,18.52084 26.269344,18.520834 0 0 0 15.633155,-3.63699 26.269344,18.520834 0 0 0 21.786266,8.17263 26.269344,18.520834 0 0 0 26.2692,-18.52084 26.269344,18.520834 0 0 0 -16.25379,-17.12195 26.269344,18.520834 0 0 0 -26.268165,-18.40766 26.269344,18.520834 0 0 0 -0.03152,0 z"
       inkscape:export-xdpi="96"
       inkscape:export-ydpi="96" />
    <path
       id="ellipse857"
       style="fill:#f9f9f9;fill-opacity:0.887218;stroke:none;stroke-width:0.406"
       d="m 81.422935,435.05045 a 26.269344,18.520834 0 0 0 -22.238951,8.69765 26.269344,18.520834 0 0 0 -14.393953,-3.02773 26.269344,18.520834 0 0 0 -26.149825,16.75868 26.269344,18.520834 0 0 0 -13.3485394,16.12511 26.269344,18.520834 0 0 0 26.2691984,18.52083 26.269344,18.520834 0 0 0 12.065928,-2.06965 26.269344,18.520834 0 0 0 4.661215,1.92289 26.269344,18.520834 0 0 0 0.217041,0.0687 26.269344,18.520834 0 0 0 10.648447,1.59006 26.269344,18.520834 0 0 0 26.269195,-18.52083 26.269344,18.520834 0 0 0 -0.39429,-3.19617 26.269344,18.520834 0 0 0 22.694739,-18.34874 26.269344,18.520834 0 0 0 -26.269199,-18.52084 26.269344,18.520834 0 0 0 -0.03101,0 z"
       inkscape:export-xdpi="96"
       inkscape:export-ydpi="96" />
    <path
       id="ellipse867"
       style="fill:#f9f9f9;fill-opacity:0.845865;stroke:none;stroke-width:0.2842"
       d="m 196.27097,120.16306 a 18.388533,12.964578 0 0 0 -18.36672,12.96457 18.388533,12.964578 0 0 0 8.14662,10.7674 18.388533,12.964578 0 0 0 -3.11959,7.22421 18.388533,12.964578 0 0 0 18.38878,12.96458 18.388533,12.964578 0 0 0 8.75146,-1.56269 18.388533,12.964578 0 0 0 14.7964,5.26686 18.388533,12.964578 0 0 0 18.38843,-12.96458 18.388533,12.964578 0 0 0 -7.72666,-10.56302 18.388533,12.964578 0 0 0 0.31834,-2.40156 18.388533,12.964578 0 0 0 -18.38844,-12.96458 18.388533,12.964578 0 0 0 -3.66329,0.25972 18.388533,12.964578 0 0 0 -17.50326,-8.99091 18.388533,12.964578 0 0 0 -0.022,0 z"
       inkscape:export-xdpi="96"
       inkscape:export-ydpi="96" />
    <path
       id="ellipse893"
       style="fill:#f9f9f9;fill-opacity:0.546992;stroke:none;stroke-width:0.171422"
       d="m 246.87175,13.229167 a 11.091501,7.819908 0 0 0 -11.01483,7.819677 11.091501,7.819908 0 0 0 4.91443,6.494693 11.091501,7.819908 0 0 0 -1.88206,4.357876 11.091501,7.819908 0 0 0 11.09183,7.819675 11.091501,7.819908 0 0 0 5.27875,-0.942578 11.091501,7.819908 0 0 0 8.92452,3.177069 11.091501,7.819908 0 0 0 11.09131,-7.820197 11.091501,7.819908 0 0 0 -4.66069,-6.371185 11.091501,7.819908 0 0 0 0.19222,-1.448491 11.091501,7.819908 0 0 0 -11.0913,-7.820194 11.091501,7.819908 0 0 0 -2.20969,0.157096 11.091501,7.819908 0 0 0 -10.55749,-5.423441 11.091501,7.819908 0 0 0 -0.077,0 z"
       inkscape:export-xdpi="96"
       inkscape:export-ydpi="96" />
    <path
       id="path923"
       style="fill:#f9f9f9;fill-opacity:0.287594;stroke:none;stroke-width:0.218615"
       d="m 40.59685,10.638647 a 14.145,9.9727343 0 0 0 -13.401974,6.81869 14.145,9.9727343 0 0 0 -12.123661,9.87034 14.145,9.9727343 0 0 0 14.145199,9.97273 14.145,9.9727343 0 0 0 8.417833,-1.95838 14.145,9.9727343 0 0 0 11.731041,4.40064 14.145,9.9727343 0 0 0 14.14492,-9.97273 14.145,9.9727343 0 0 0 -8.75202,-9.2195 14.145,9.9727343 0 0 0 -14.144364,-9.91179 14.145,9.9727343 0 0 0 -0.01697,0 z"
       inkscape:export-xdpi="96"
       inkscape:export-ydpi="96" />
    <path
       id="path925"
       style="fill:#f9f9f9;fill-opacity:0.503759;stroke:none;stroke-width:0.2436"
       d="m 215.55123,225.7668 a 15.761597,11.112494 0 0 0 -15.7429,11.11249 15.761597,11.112494 0 0 0 6.98283,9.2292 15.761597,11.112494 0 0 0 -2.67395,6.19218 15.761597,11.112494 0 0 0 15.76182,11.11249 15.761597,11.112494 0 0 0 7.50124,-1.33945 15.761597,11.112494 0 0 0 12.68263,4.51445 15.761597,11.112494 0 0 0 15.76151,-11.11249 15.761597,11.112494 0 0 0 -6.62285,-9.05402 15.761597,11.112494 0 0 0 0.27286,-2.05847 15.761597,11.112494 0 0 0 -15.76151,-11.1125 15.761597,11.112494 0 0 0 -3.13997,0.22262 15.761597,11.112494 0 0 0 -15.00279,-7.7065 15.761597,11.112494 0 0 0 -0.0189,0 z"
       inkscape:export-xdpi="96"
       inkscape:export-ydpi="96" />
    <path
       id="path927"
       style="fill:#f9f9f9;fill-opacity:0.684211;stroke:none;stroke-width:0.406"
       d="m 46.64876,195.41368 a 26.269344,18.520834 0 0 0 -26.23819,18.52083 26.269344,18.520834 0 0 0 11.63804,15.38201 26.269344,18.520834 0 0 0 -4.45657,10.32031 26.269344,18.520834 0 0 0 26.26971,18.52083 26.269344,18.520834 0 0 0 12.50209,-2.23242 26.269344,18.520834 0 0 0 21.13772,7.52409 26.269344,18.520834 0 0 0 26.2692,-18.52084 26.269344,18.520834 0 0 0 -11.03809,-15.09003 26.269344,18.520834 0 0 0 0.45476,-3.4308 26.269344,18.520834 0 0 0 -26.2692,-18.52083 26.269344,18.520834 0 0 0 -5.23327,0.37102 26.269344,18.520834 0 0 0 -25.00468,-12.84417 26.269344,18.520834 0 0 0 -0.0315,0 z"
       inkscape:export-xdpi="96"
       inkscape:export-ydpi="96" />
    <path
       id="path929"
       style="fill:#f9f9f9;fill-opacity:0.887218;stroke:none;stroke-width:0.263214"
       d="m 212.5932,398.55075 a 17.761767,11.513 25.277618 0 0 16.26055,3.99714 17.761767,11.513 25.277618 0 0 6.75904,6.63798 17.761767,11.513 25.277618 0 0 21.96094,1.64387 17.761767,11.513 25.277618 0 0 14.50301,-2.70319 17.761767,11.513 25.277618 0 0 -6.68314,-18.19508 17.761767,11.513 25.277618 0 0 -7.66996,-3.40836 17.761767,11.513 25.277618 0 0 -1.7789,-2.59055 17.761767,11.513 25.277618 0 0 -0.0919,-0.11088 17.761767,11.513 25.277618 0 0 -5.28288,-4.60662 17.761767,11.513 25.277618 0 0 -22.79435,-0.86264 17.761767,11.513 25.277618 0 0 -1.16895,1.63858 17.761767,11.513 25.277618 0 0 -20.71401,0.35343 17.761767,11.513 25.277618 0 0 6.68313,18.19508 17.761767,11.513 25.277618 0 0 0.0174,0.0112 z"
       inkscape:export-xdpi="96"
       inkscape:export-ydpi="96" />
    <path
       id="path931"
       style="fill:#f9f9f9;fill-opacity:0.640978;stroke:none;stroke-width:0.144031"
       d="m 250.2256,369.11035 a 9.7192911,6.2999474 25.277618 0 0 8.89783,2.18725 9.7192911,6.2999474 25.277618 0 0 3.69856,3.63232 9.7192911,6.2999474 25.277618 0 0 12.01709,0.89953 9.7192911,6.2999474 25.277618 0 0 7.93609,-1.47919 9.7192911,6.2999474 25.277618 0 0 -3.65703,-9.9564 9.7192911,6.2999474 25.277618 0 0 -4.19703,-1.86507 9.7192911,6.2999474 25.277618 0 0 -0.97342,-1.41755 9.7192911,6.2999474 25.277618 0 0 -0.0503,-0.0607 9.7192911,6.2999474 25.277618 0 0 -2.89081,-2.52075 9.7192911,6.2999474 25.277618 0 0 -12.47314,-0.47204 9.7192911,6.2999474 25.277618 0 0 -0.63965,0.89664 9.7192911,6.2999474 25.277618 0 0 -11.33477,0.19339 9.7192911,6.2999474 25.277618 0 0 3.65703,9.9564 9.7192911,6.2999474 25.277618 0 0 0.01,0.006 z"
       inkscape:export-xdpi="96"
       inkscape:export-ydpi="96" />
  </g>
</svg>
